<?xml version="1.0" standalone="no"?>
<!DOCTYPE svg PUBLIC "-//W3C//DTD SVG 20010904//EN"
 "http://www.w3.org/TR/2001/REC-SVG-20010904/DTD/svg10.dtd">
<svg version="1.0" xmlns="http://www.w3.org/2000/svg"
 width="512.000000pt" height="512.000000pt" viewBox="0 0 512.000000 512.000000"
 preserveAspectRatio="xMidYMid meet">
<metadata>
Created by potrace 1.11, written by Peter Selinger 2001-2013
</metadata>
<g transform="translate(0.000000,512.000000) scale(0.100000,-0.100000)"
fill="#000000" stroke="none">
<path d="M2309 5105 c-3 -2 -41 -7 -84 -11 -44 -3 -84 -9 -90 -12 -5 -3 -18
-7 -30 -8 -72 -9 -343 -80 -360 -94 -5 -4 -13 -9 -17 -9 -5 -1 -9 -1 -10 -2
-2 0 -13 -2 -25 -5 -19 -3 -52 -17 -173 -71 -89 -40 -191 -93 -254 -131 -37
-23 -70 -42 -73 -42 -9 0 -167 -112 -223 -159 -30 -25 -66 -54 -80 -66 -30
-25 -244 -239 -280 -280 -65 -75 -210 -275 -210 -290 0 -4 -8 -19 -19 -33 -41
-59 -123 -214 -161 -307 -5 -11 -15 -36 -24 -55 -32 -73 -55 -140 -50 -140 4
0 2 -6 -4 -13 -20 -24 -84 -272 -98 -380 -2 -16 -6 -32 -8 -35 -27 -45 -28
-759 0 -803 2 -4 6 -24 10 -45 11 -74 42 -199 68 -284 15 -47 28 -92 31 -100
2 -8 4 -15 5 -15 1 0 3 -7 5 -15 1 -9 24 -65 49 -125 183 -429 454 -777 826
-1058 41 -31 80 -61 85 -65 38 -31 222 -134 330 -187 226 -109 473 -187 725
-227 200 -32 577 -32 775 0 311 49 631 160 876 302 98 57 213 132 217 142 2 5
8 8 13 8 10 0 139 102 208 165 241 219 414 440 559 715 56 108 141 296 147
330 2 8 4 16 5 18 2 1 3 5 5 10 1 4 4 14 8 22 26 67 76 263 91 364 4 21 8 42
11 46 27 44 26 712 -1 803 -3 11 -7 29 -9 40 -12 101 -77 351 -97 374 -6 7 -8
13 -4 13 6 0 -23 79 -56 150 -11 25 -26 61 -33 81 -18 50 -102 209 -140 264
-12 17 -27 42 -34 57 -8 15 -22 37 -33 47 -10 11 -18 23 -18 27 0 8 -112 157
-150 199 -55 62 -257 262 -307 304 -183 154 -396 282 -695 415 -57 26 -118 46
-118 39 0 -3 -6 -1 -13 5 -21 18 -366 106 -376 96 -2 -2 -9 0 -15 5 -6 5 -40
12 -76 16 -75 8 -594 17 -601 10z m733 -1252 c237 -93 454 -311 557 -561 57
-137 75 -232 74 -392 0 -167 -24 -278 -87 -415 -74 -160 -212 -329 -336 -411
-22 -15 -40 -30 -40 -34 0 -4 28 -22 62 -40 34 -19 57 -35 51 -37 -7 -3 -21 0
-31 6 -11 6 -41 15 -68 21 -27 6 -64 18 -82 26 -18 8 -40 17 -50 19 -26 6
-143 53 -156 63 -6 5 -24 13 -41 17 -16 5 -33 9 -37 10 -16 5 -18 5 -25 4 -3
0 -10 7 -15 16 -6 10 -16 14 -29 10 -11 -4 -19 -2 -19 4 0 6 -6 11 -14 11 -8
0 -16 7 -20 15 -7 20 27 20 104 -2 58 -16 61 -15 82 3 12 10 18 13 13 5 -5 -9
-4 -12 3 -7 6 4 16 25 22 46 6 22 15 40 21 40 5 0 14 11 19 25 5 14 21 30 35
35 13 5 30 18 37 30 7 11 16 20 21 20 10 0 90 82 117 119 10 16 17 31 13 35
-3 3 -1 6 5 6 31 0 81 163 86 280 5 101 -7 176 -40 248 -13 29 -24 57 -24 62
0 28 -110 152 -166 187 -91 58 -231 77 -303 43 -20 -10 -51 -22 -67 -26 -16
-4 -47 -17 -69 -29 -22 -12 -74 -40 -115 -63 -106 -57 -163 -110 -202 -190
l-33 -67 -5 -826 c-5 -777 -6 -828 -23 -847 -49 -54 -287 -78 -345 -35 -32 24
-31 3 -33 611 -1 221 -6 365 -11 369 -6 3 -5 9 2 13 7 5 12 23 11 42 -2 28 -2
400 -1 463 0 11 0 60 0 110 0 49 4 113 11 143 6 29 8 60 5 69 -4 8 -2 21 4 28
6 7 12 28 14 46 2 19 13 54 25 79 11 25 21 51 21 58 0 6 5 12 12 12 6 0 8 3 5
6 -3 4 2 18 13 32 11 13 17 28 14 33 -3 5 -1 9 4 9 5 0 15 12 23 28 30 58 221
252 249 252 6 0 10 4 10 8 0 4 26 21 58 37 31 16 80 42 107 58 28 16 52 29 55
29 7 1 29 8 75 25 22 8 47 17 55 19 156 41 280 40 392 -3z m-1309 -475 c-57
-173 -61 -210 -63 -693 -3 -764 -21 -1347 -42 -1372 -17 -21 -38 -15 -48 13
-12 31 -12 1256 0 1539 9 216 24 294 81 429 25 60 95 186 103 186 2 0 -13 -46
-31 -102z m848 -985 c-70 -132 -98 -221 -116 -372 -7 -63 -12 -61 -21 6 -14
112 29 253 106 346 34 40 46 48 31 20z m851 -469 c135 -46 218 -202 189 -356
-18 -90 -53 -160 -110 -221 -83 -87 -184 -124 -266 -97 -160 53 -217 288 -118
483 42 85 129 167 202 193 47 17 49 17 103 -2z"/>
</g>
</svg>
